<svg width="139" height="34" viewBox="0 0 139 34" fill="none" xmlns="http://www.w3.org/2000/svg">
<path d="M30.4688 31.0684L19.3281 32.5059L17.9805 27.4297H12.8594L11.7363 32.5059L0.28125 31.3828L9.2207 1.46484L21.709 0.835938L30.4688 31.0684ZM17.1719 20.5566L15.4648 12.7402L13.8027 20.5566H17.1719ZM57.085 25.0039C57.085 26.2467 56.8529 27.3174 56.3887 28.2158C55.9395 29.1143 55.333 29.8779 54.5693 30.5068C53.8057 31.1357 52.9222 31.6523 51.9189 32.0566C50.9307 32.446 49.8975 32.7529 48.8193 32.9775C47.7412 33.2021 46.6556 33.3519 45.5625 33.4268C44.4844 33.5016 43.4736 33.5391 42.5303 33.5391C41.6019 33.5391 40.6361 33.5016 39.6328 33.4268C38.6445 33.3669 37.6562 33.2546 36.668 33.0898C35.6797 32.9251 34.7064 32.708 33.748 32.4385C32.7897 32.154 31.8838 31.8021 31.0303 31.3828L30.9854 2.45312C31.8239 2.10872 32.7148 1.80176 33.6582 1.53223C34.6016 1.24772 35.5599 1.01562 36.5332 0.835938C37.5215 0.641276 38.5023 0.499023 39.4756 0.40918C40.4489 0.304362 41.3923 0.251953 42.3057 0.251953C43.3688 0.251953 44.4395 0.319336 45.5176 0.454102C46.6107 0.588867 47.6589 0.813477 48.6621 1.12793C49.6654 1.44238 50.6012 1.85417 51.4697 2.36328C52.3382 2.85742 53.0944 3.47135 53.7383 4.20508C54.3971 4.9388 54.9062 5.79232 55.2656 6.76562C55.64 7.73893 55.8271 8.86198 55.8271 10.1348C55.8271 10.9733 55.7074 11.7594 55.4678 12.4932C55.2282 13.2269 54.8838 13.8857 54.4346 14.4697C53.9854 15.0537 53.4388 15.5553 52.7949 15.9746C52.151 16.3789 51.4248 16.6784 50.6162 16.873C51.5895 17.1276 52.473 17.502 53.2666 17.9961C54.0752 18.4902 54.7565 19.0892 55.3105 19.793C55.8796 20.4967 56.3138 21.2904 56.6133 22.1738C56.9277 23.0573 57.085 24.0007 57.085 25.0039ZM45.6748 12.2012C45.6748 11.7669 45.585 11.4001 45.4053 11.1006C45.2256 10.7861 45.001 10.5316 44.7314 10.3369C44.4769 10.1423 44.1924 10 43.8779 9.91016C43.5785 9.82031 43.3089 9.77539 43.0693 9.77539C42.7699 9.77539 42.4779 9.82031 42.1934 9.91016C41.9089 10 41.6318 10.1048 41.3623 10.2246L41.2275 15.2109C41.5719 15.2109 41.9987 15.181 42.5078 15.1211C43.0169 15.0612 43.5036 14.9339 43.9678 14.7393C44.4469 14.5296 44.8512 14.2301 45.1807 13.8408C45.5101 13.4365 45.6748 12.89 45.6748 12.2012ZM42.4854 19.5234C42.0511 19.5234 41.6318 19.5684 41.2275 19.6582L41.1377 24.7793C41.3623 24.8242 41.5794 24.8691 41.7891 24.9141C42.0137 24.944 42.2308 24.959 42.4404 24.959C42.7549 24.959 43.0993 24.929 43.4736 24.8691C43.848 24.7943 44.1999 24.6595 44.5293 24.4648C44.8587 24.2552 45.1283 23.9782 45.3379 23.6338C45.5625 23.2894 45.6748 22.8327 45.6748 22.2637C45.6748 21.6947 45.5625 21.2305 45.3379 20.8711C45.1283 20.5117 44.8662 20.2347 44.5518 20.04C44.2373 19.8304 43.8929 19.6956 43.5186 19.6357C43.1442 19.5609 42.7998 19.5234 42.4854 19.5234ZM83.7461 15.166C83.7461 17.2624 83.4766 19.1416 82.9375 20.8037C82.3984 22.4658 81.6423 23.9408 80.6689 25.2285C79.7106 26.5013 78.5651 27.5869 77.2324 28.4854C75.8997 29.3838 74.4398 30.125 72.8525 30.709C71.2653 31.278 69.5732 31.6973 67.7764 31.9668C65.9945 32.2363 64.1602 32.3711 62.2734 32.3711C61.5697 32.3711 60.8809 32.3561 60.207 32.3262C59.5332 32.2812 58.8444 32.2214 58.1406 32.1465L58.7695 2.90234C60.4167 2.37826 62.1087 2.01139 63.8457 1.80176C65.5977 1.57715 67.3346 1.46484 69.0566 1.46484C71.1979 1.46484 73.167 1.76432 74.9639 2.36328C76.7607 2.96224 78.3105 3.8457 79.6133 5.01367C80.916 6.16667 81.9268 7.59668 82.6455 9.30371C83.3792 10.9958 83.7461 12.9499 83.7461 15.166ZM68.4727 23.791C69.3711 23.6562 70.1872 23.3867 70.9209 22.9824C71.6696 22.5632 72.3135 22.054 72.8525 21.4551C73.3916 20.8411 73.8034 20.1523 74.0879 19.3887C74.3874 18.61 74.5371 17.7865 74.5371 16.918C74.5371 16.0645 74.4473 15.2708 74.2676 14.5371C74.0879 13.7884 73.7959 13.1445 73.3916 12.6055C72.9873 12.0514 72.4557 11.6172 71.7969 11.3027C71.138 10.9733 70.3294 10.7936 69.3711 10.7637L68.4727 23.791ZM110.228 14.8516C110.228 16.1543 110.138 17.457 109.958 18.7598C107.397 18.9245 104.852 19.194 102.321 19.5684C99.7907 19.9277 97.2601 20.2871 94.7295 20.6465C95.1188 21.7246 95.7253 22.5856 96.5488 23.2295C97.3874 23.8734 98.3831 24.1953 99.5361 24.1953C100.135 24.1953 100.786 24.083 101.49 23.8584C102.209 23.6338 102.92 23.3568 103.624 23.0273C104.328 22.6829 105.002 22.3161 105.646 21.9268C106.289 21.5374 106.843 21.1855 107.308 20.8711L106.229 31.0684C105.646 31.5176 105.009 31.8994 104.32 32.2139C103.646 32.5283 102.943 32.7829 102.209 32.9775C101.475 33.1722 100.734 33.3145 99.9854 33.4043C99.2367 33.4941 98.5029 33.5391 97.7842 33.5391C96.3018 33.5391 94.9466 33.3369 93.7188 32.9326C92.4909 32.5283 91.3753 31.9668 90.3721 31.248C89.3838 30.5143 88.5153 29.6533 87.7666 28.665C87.0179 27.6768 86.3965 26.5986 85.9023 25.4307C85.4082 24.2627 85.0339 23.0273 84.7793 21.7246C84.5247 20.4219 84.3975 19.1042 84.3975 17.7715C84.3975 16.3789 84.5247 14.9863 84.7793 13.5938C85.0339 12.2012 85.4157 10.861 85.9248 9.57324C86.4489 8.28548 87.1003 7.09505 87.8789 6.00195C88.6725 4.89388 89.5934 3.92806 90.6416 3.10449C91.6898 2.28092 92.8727 1.63704 94.1904 1.17285C95.5231 0.708659 96.9906 0.476562 98.5928 0.476562C99.9255 0.476562 101.138 0.663737 102.231 1.03809C103.34 1.39746 104.32 1.90658 105.174 2.56543C106.042 3.20931 106.791 3.98047 107.42 4.87891C108.064 5.77734 108.588 6.76562 108.992 7.84375C109.411 8.9069 109.718 10.0374 109.913 11.2354C110.123 12.4183 110.228 13.6237 110.228 14.8516ZM101.243 13.6836C101.243 13.2643 101.198 12.8376 101.108 12.4033C101.019 11.9541 100.869 11.5498 100.659 11.1904C100.465 10.8311 100.202 10.5391 99.873 10.3145C99.5436 10.0749 99.1318 9.95508 98.6377 9.95508C98.0387 9.95508 97.5072 10.1198 97.043 10.4492C96.5938 10.7637 96.2044 11.168 95.875 11.6621C95.5456 12.1413 95.276 12.6654 95.0664 13.2344C94.8568 13.8034 94.6995 14.3275 94.5947 14.8066L101.243 14.1777V13.6836ZM138.775 1.50977L130.555 31.877L119.414 32.5059L109.307 3.17188L119.953 2.18359L124.266 19.2539L128.443 0.835938L138.775 1.50977Z" fill="black"/>
</svg>
